<?xml version="1.0" standalone="no"?><!DOCTYPE svg PUBLIC "-//W3C//DTD SVG 1.1//EN" "http://www.w3.org/Graphics/SVG/1.1/DTD/svg11.dtd"><svg t="1730789972884" class="icon" viewBox="0 0 1024 1024" version="1.1" xmlns="http://www.w3.org/2000/svg" p-id="9603" xmlns:xlink="http://www.w3.org/1999/xlink" width="128" height="128"><path d="M996.786357 322.340974L534.069942 555.362709a53.87268 53.87268 0 0 1-43.891518 0L27.398027 322.340974a46.258845 46.258845 0 0 1 0-83.880146L490.178424 5.375111a53.808698 53.808698 0 0 1 46.322827 0l460.285106 233.085717a43.827537 43.827537 0 0 1 26.808377 41.972064 48.818117 48.818117 0 0 1-26.808377 41.908082zM512.060201 100.899947l-358.298109 179.149054 358.298109 179.149055 358.298109-179.149055zM71.225564 471.482562L512.060201 692.859608l440.834638-219.009719a47.090609 47.090609 0 0 1 65.773296 18.618705 42.675864 42.675864 0 0 1-24.377068 60.59077l-462.780397 233.085716a74.346858 74.346858 0 0 1-21.881777 4.60669 38.389083 38.389083 0 0 1-21.945759-4.60669L24.902737 553.059364a46.962645 46.962645 0 0 1-19.194542-62.894115 51.185444 51.185444 0 0 1 65.581351-18.682687z m0 233.085716L512.060201 925.945324l440.834638-221.377046a43.9555 43.9555 0 0 1 60.910679 18.618706 43.2517 43.2517 0 0 1-19.514451 62.958096l-462.780397 233.021734a72.491385 72.491385 0 0 1-21.881777 4.670672 37.621301 37.621301 0 0 1-21.945759-4.670672L24.902737 786.14508a47.666445 47.666445 0 0 1-19.194542-62.958096 51.185444 51.185444 0 0 1 65.581351-18.618706z" fill="#e6e6e6" p-id="9604"></path></svg>