<?xml version="1.0" standalone="no"?><!DOCTYPE svg PUBLIC "-//W3C//DTD SVG 1.1//EN" "http://www.w3.org/Graphics/SVG/1.1/DTD/svg11.dtd"><svg t="1730789836289" class="icon" viewBox="0 0 1024 1024" version="1.1" xmlns="http://www.w3.org/2000/svg" p-id="6850" width="128" height="128" xmlns:xlink="http://www.w3.org/1999/xlink"><path d="M854.4256 535.296c48.64 0 88.1152 39.424 88.1152 88.064v196.1472c0 48.64-39.424 88.1152-88.064 88.1152H192.768c-48.64 0-88.064-39.424-88.064-88.064v-196.1984c0-48.64 39.424-88.064 88.064-88.064z m0 69.7856H192.8192a18.2784 18.2784 0 0 0-18.2784 18.2784v196.1472c0 10.1376 8.192 18.3296 18.2784 18.3296h661.6064c10.1376 0 18.2784-8.192 18.2784-18.3296v-196.096a18.2784 18.2784 0 0 0-18.2784-18.3296zM357.4272 686.592a34.9184 34.9184 0 0 1 0 69.8368H267.6224a34.9184 34.9184 0 0 1 0-69.8368h89.8048z m179.5072 0a34.9184 34.9184 0 1 1 0 69.8368h-36.5568a34.9184 34.9184 0 0 1 0-69.8368h36.5568z m317.4912-593.408c48.64 0 88.1152 39.424 88.1152 88.064V377.344c0 48.64-39.424 88.064-88.064 88.064H192.768c-48.64 0-88.064-39.424-88.064-88.064V181.248c0-48.64 39.424-88.064 88.064-88.064z m0 69.7856H192.8192a18.2784 18.2784 0 0 0-18.2784 18.2784V377.344c0 10.0864 8.192 18.2784 18.2784 18.2784h661.6064c10.1376 0 18.2784-8.192 18.2784-18.2784V181.248a18.2784 18.2784 0 0 0-18.2784-18.2784z m-496.9984 81.408a34.9184 34.9184 0 0 1 0 69.8368H267.6224a34.9184 34.9184 0 1 1 0-69.7856h89.8048z m179.5072 0a34.9184 34.9184 0 1 1 0 69.8368h-36.5568a34.9184 34.9184 0 0 1 0-69.7856h36.5568z" fill="#e6e6e6" p-id="6851"></path></svg>